<svg width="40" height="40" viewBox="0 0 40 40" fill="none" xmlns="http://www.w3.org/2000/svg">
<path d="M28.3438 33.375C29.0341 33.375 29.5938 32.7734 29.5938 32.0313C29.5938 31.2891 29.0341 30.6875 28.3438 30.6875C27.6534 30.6875 27.0938 31.2891 27.0938 32.0313C27.0938 32.7734 27.6534 33.375 28.3438 33.375Z" fill="#3A69E2"/>
<path d="M13.7188 27.0625C13.125 26.4687 12.4063 26.0938 11.6562 26.0938C10.875 26.0938 10.1563 26.4687 9.5625 27.0937C10.6875 26.8437 12.125 26.7187 13.7188 27.0625Z" fill="#3A69E2"/>
<path d="M39.6562 36.4688C38.6875 29.8125 34.7812 24.1875 29.4062 21.125C29.6563 23 29.9063 26.1875 29.3125 29C30.5 29.4375 31.375 30.625 31.375 32.0312C31.375 33.8125 30.0312 35.2187 28.3438 35.2187C26.6562 35.2187 25.3125 33.7812 25.3125 32.0312C25.3125 30.5 26.3125 29.25 27.6563 28.9062C28.4688 25.5938 27.8125 21.3125 27.625 20.2187C27.4063 20.125 27.1875 20.0312 26.9688 19.9375C25.1563 21.8125 22.7188 22.9688 20 22.9688C17.3438 22.9688 14.9063 21.8437 13.125 20.0312C12.8438 20.6562 12.3125 22.1875 12.4063 24.4688C15.0625 25 17.0938 28.25 17.0938 32.1563C17.0938 33.5938 16.8125 35.0312 16.2813 36.25C16 37.1562 14.7813 37.5312 14.2188 37.5312C13.375 37.5312 12.6875 36.8125 12.6875 35.9063C12.6875 35 13.375 34.2812 14.2188 34.2812C14.4688 34.2812 14.8125 34.3438 15.1875 34.5C15.375 33.75 15.5 32.9688 15.5 32.1563C15.5 31.125 15.3438 30.125 15.0313 29.2812C12.0313 27.9062 9.28125 28.8437 8.28125 29.2812C8 30.125 7.8125 31.125 7.8125 32.1563C7.8125 32.9688 7.90625 33.75 8.125 34.5C8.5 34.3438 8.84375 34.2812 9.09375 34.2812C9.9375 34.2812 10.625 35 10.625 35.9063C10.625 36.8125 9.9375 37.5312 9.09375 37.5312C8.5625 37.5312 7.375 37.1875 7.0625 36.3438C6.5 35.0938 6.21875 33.6563 6.21875 32.1563C6.21875 28.2813 8.21875 25.0625 10.8125 24.4688C10.75 22.9688 10.9375 21.7187 11.1563 20.8125C5.46875 23.8125 1.34375 29.5937 0.343752 36.4688C0.0937517 38.1562 1.34375 39.6875 2.9375 39.6875H37.0312C38.6562 39.6875 39.9063 38.1562 39.6562 36.4688Z" fill="#3A69E2"/>
<path d="M20 21.5625C24.6875 21.5625 28.5 17.5312 28.5 12.5625C28.5 11.875 28.4375 11.2188 28.2813 10.5625L27.1875 10.2813C24.8438 9.65625 22.4063 9.3125 20 9.3125C17.5938 9.3125 15.1563 9.625 12.8125 10.2813L11.75 10.5625C11.625 11.2188 11.5313 11.875 11.5313 12.5625C11.5 17.5625 15.3125 21.5625 20 21.5625Z" fill="#3A69E2"/>
<path d="M27.5938 8.625C28.1875 6.28125 28.75 3.90625 29.3125 1.5625C23.2188 -0.09375 16.7812 -0.09375 10.6875 1.5625C11.25 3.90625 11.8438 6.28125 12.4062 8.625C17.375 7.28125 22.625 7.28125 27.5938 8.625ZM17.7188 3.21875H19.3125V1.53125H20.6875V3.21875H22.2813V4.65625H20.6875V6.34375H19.3125V4.65625H17.7188V3.21875Z" fill="#3A69E2"/>
</svg>
