<svg width="20" height="20" viewBox="0 0 20 20" fill="none" xmlns="http://www.w3.org/2000/svg">
<path d="M10 0.5C4.76 0.5 0.5 4.76 0.5 10C0.5 15.24 4.76 19.5 10 19.5C15.24 19.5 19.5 15.24 19.5 10C19.5 4.76 15.24 0.5 10 0.5ZM15.22 13.52C15.04 13.96 14.72 14.4 14.52 14.6C13.38 15.74 10.32 14.72 7.8 12.2C5.28 9.68 4.26 6.64 5.4 5.48C5.6 5.28 6.06 4.96 6.48 4.78C6.8 4.64 7.18 4.74 7.4 5.02L8.66 6.62C8.92 6.94 8.88 7.42 8.56 7.7C8.24 7.98 8.02 8.18 7.96 8.24C7.48 8.72 8.18 9.74 9.24 10.8C10.3 11.86 11.3 12.58 11.8 12.08C11.86 12.02 12.06 11.8 12.34 11.48C12.62 11.16 13.08 11.12 13.42 11.38L15.02 12.64C15.28 12.8 15.36 13.18 15.22 13.52Z" fill="#1F3D9D"/>
</svg>
